<svg xmlns="http://www.w3.org/2000/svg" width="1180" height="626"><rect width="100%" height="100%" fill="white"/><text x="590" y="37" font-family="Arial" font-size="25" font-weight="bold" text-anchor="middle">USB Driver - Relationship</text><rect x="20" y="72" width="760" height="110" rx="9" fill="#23723b" opacity=".14" stroke="#23723b"/><rect x="20" y="72" width="195" height="110" rx="9" fill="#23723b"/><text x="117" y="109" font-family="Arial" font-size="18" font-weight="bold" fill="white" text-anchor="middle">System Services</text><rect x="240" y="90" width="150" height="31" rx="5" fill="white" stroke="#75869a"/><text x="315" y="110" font-family="Arial" font-size="13" text-anchor="middle">Device Management</text><rect x="20" y="203" width="760" height="110" rx="9" fill="#563891" opacity=".14" stroke="#563891"/><rect x="20" y="203" width="195" height="110" rx="9" fill="#563891"/><text x="117" y="240" font-family="Arial" font-size="18" font-weight="bold" fill="white" text-anchor="middle">HAL</text><rect x="240" y="221" width="150" height="31" rx="5" fill="white" stroke="#75869a"/><text x="315" y="241" font-family="Arial" font-size="13" text-anchor="middle">Device-specific HALs</text><rect x="20" y="334" width="760" height="110" rx="9" fill="#31536f" opacity=".14" stroke="#31536f"/><rect x="20" y="334" width="195" height="110" rx="9" fill="#31536f"/><text x="117" y="371" font-family="Arial" font-size="18" font-weight="bold" fill="white" text-anchor="middle">Linux Kernel</text><rect x="240" y="352" width="150" height="31" rx="5" fill="white" stroke="#75869a"/><text x="315" y="372" font-family="Arial" font-size="13" text-anchor="middle">USB Driver</text><rect x="20" y="465" width="760" height="110" rx="9" fill="#42515d" opacity=".14" stroke="#42515d"/><rect x="20" y="465" width="195" height="110" rx="9" fill="#42515d"/><text x="117" y="502" font-family="Arial" font-size="18" font-weight="bold" fill="white" text-anchor="middle">Hardware Platform</text><rect x="240" y="483" width="150" height="31" rx="5" fill="white" stroke="#75869a"/><text x="315" y="503" font-family="Arial" font-size="13" text-anchor="middle">Other Peripherals</text><rect x="410" y="483" width="150" height="31" rx="5" fill="white" stroke="#75869a"/><text x="485" y="503" font-family="Arial" font-size="13" text-anchor="middle">SoC / CPU</text><rect x="805" y="72" width="175" height="184" rx="9" fill="#eaf7ff" stroke="#2b91cf"/><text x="892" y="98" font-family="Arial" font-size="16" font-weight="bold" text-anchor="middle">Security</text><text x="892" y="127" font-family="Arial" font-size="13" text-anchor="middle">Kernel Hardening</text><text x="892" y="163" font-family="Arial" font-size="13" text-anchor="middle">Security Policy</text><text x="892" y="199" font-family="Arial" font-size="13" text-anchor="middle">Audit</text><rect x="995" y="72" width="165" height="148" rx="9" fill="#f3ecff" stroke="#7254b3"/><text x="1077" y="98" font-family="Arial" font-size="16" font-weight="bold" text-anchor="middle">Buses</text><text x="1077" y="127" font-family="Arial" font-size="12" text-anchor="middle">Kernel Bus</text><text x="1077" y="163" font-family="Arial" font-size="12" text-anchor="middle">Hardware Bus</text></svg>