<svg xmlns="http://www.w3.org/2000/svg" width="1400" height="850"><defs><style>text{font-family:Arial;fill:#172033}.h{font-size:22px;font-weight:bold}.t{font-size:14px}.cam{fill:#f9e5df;stroke:#ad5a41;stroke-width:2}.gw{fill:#e8f2ff;stroke:#3b77b7;stroke-width:2}.back{fill:#e6f6ef;stroke:#2d8c68;stroke-width:2}.repo{fill:#fff7e6;stroke:#bd862f;stroke-width:2}.p{fill:#fff4d8;stroke:#c38a17;stroke-width:2}.a{stroke:#53677d;stroke-width:2.5;fill:none;marker-end:url(#a)}.o{stroke:#7d8791;stroke-width:2;stroke-dasharray:7 6;fill:none;marker-end:url(#o)}</style><marker id="a" markerWidth="10" markerHeight="10" refX="8" refY="3.5" orient="auto"><polygon points="0 0,8 3.5,0 7" fill="#53677d"/></marker><marker id="o" markerWidth="10" markerHeight="10" refX="8" refY="3.5" orient="auto"><polygon points="0 0,8 3.5,0 7" fill="#7d8791"/></marker></defs><rect width="1400" height="850" fill="white"/><text x="700" y="40" class="h" text-anchor="middle">Device Management — v2 placement relationship</text><rect x="500" y="70" width="400" height="80" rx="12" class="p"/><text x="700" y="105" class="h" text-anchor="middle">Product Profile</text><rect x="70" y="245" width="300" height="170" rx="12" class="gw"/><text x="220" y="280" class="h" text-anchor="middle">Optional Gateway</text><rect x="550" y="225" width="300" height="210" rx="12" class="cam"/><text x="700" y="265" class="h" text-anchor="middle">Camera Service</text><text x="700" y="300" class="t" text-anchor="middle">Device Management</text><rect x="1030" y="245" width="300" height="170" rx="12" class="back"/><text x="1180" y="280" class="h" text-anchor="middle">Optional Backend</text><path d="M370 330 L550 330" class="a"/><path d="M850 330 L1030 330" class="a"/><path d="M700 150 L700 225" class="o"/><rect x="260" y="560" width="880" height="130" rx="12" class="repo"/><text x="700" y="595" class="h" text-anchor="middle">Portable contracts / adapters</text><text x="700" y="630" class="t" text-anchor="middle">DeviceLifecycle + DesiredReportedState + Ownership/Enrollment contracts with explicit reconciliation.</text><path d="M700 435 L700 560" class="a"/></svg>