<svg xmlns="http://www.w3.org/2000/svg" width="1180" height="1009"><rect width="100%" height="100%" fill="white"/><text x="590" y="38" font-family="Arial" font-size="25" font-weight="bold" text-anchor="middle">Device Management - Relationship</text><rect x="20" y="75" width="760" height="114" rx="9" fill="#a1434d" opacity=".14" stroke="#a1434d"/><rect x="20" y="75" width="195" height="114" rx="9" fill="#a1434d"/><text x="117" y="113" font-family="Arial" font-size="18" font-weight="bold" fill="white" text-anchor="middle">Application Layer</text><rect x="240" y="95" width="150" height="32" rx="5" fill="white" stroke="#75869a"/><text x="315" y="116" font-family="Arial" font-size="13" text-anchor="middle">Device Config</text><rect x="410" y="95" width="150" height="32" rx="5" fill="white" stroke="#75869a"/><text x="485" y="116" font-family="Arial" font-size="13" text-anchor="middle">Settings</text><rect x="580" y="95" width="150" height="32" rx="5" fill="white" stroke="#75869a"/><text x="655" y="116" font-family="Arial" font-size="13" text-anchor="middle">Alarm</text><rect x="20" y="211" width="760" height="158" rx="9" fill="#23723b" opacity=".14" stroke="#23723b"/><rect x="20" y="211" width="195" height="158" rx="9" fill="#23723b"/><text x="117" y="249" font-family="Arial" font-size="18" font-weight="bold" fill="white" text-anchor="middle">System Services</text><rect x="240" y="231" width="150" height="32" rx="5" fill="white" stroke="#75869a"/><text x="315" y="252" font-family="Arial" font-size="13" text-anchor="middle">Device Management</text><rect x="410" y="231" width="150" height="32" rx="5" fill="white" stroke="#75869a"/><text x="485" y="252" font-family="Arial" font-size="13" text-anchor="middle">Network Service</text><rect x="580" y="231" width="150" height="32" rx="5" fill="white" stroke="#75869a"/><text x="655" y="252" font-family="Arial" font-size="13" text-anchor="middle">Storage Service</text><rect x="240" y="275" width="150" height="32" rx="5" fill="white" stroke="#75869a"/><text x="315" y="296" font-family="Arial" font-size="13" text-anchor="middle">Camera Service</text><rect x="20" y="391" width="760" height="114" rx="9" fill="#20769b" opacity=".14" stroke="#20769b"/><rect x="20" y="391" width="195" height="114" rx="9" fill="#20769b"/><text x="117" y="429" font-family="Arial" font-size="18" font-weight="bold" fill="white" text-anchor="middle">Middleware</text><rect x="240" y="411" width="150" height="32" rx="5" fill="white" stroke="#75869a"/><text x="315" y="432" font-family="Arial" font-size="13" text-anchor="middle">Database</text><rect x="410" y="411" width="150" height="32" rx="5" fill="white" stroke="#75869a"/><text x="485" y="432" font-family="Arial" font-size="13" text-anchor="middle">SSL / TLS</text><rect x="20" y="527" width="760" height="114" rx="9" fill="#563891" opacity=".14" stroke="#563891"/><rect x="20" y="527" width="195" height="114" rx="9" fill="#563891"/><text x="117" y="565" font-family="Arial" font-size="18" font-weight="bold" fill="white" text-anchor="middle">HAL</text><rect x="240" y="547" width="150" height="32" rx="5" fill="white" stroke="#75869a"/><text x="315" y="568" font-family="Arial" font-size="13" text-anchor="middle">Network HAL</text><rect x="410" y="547" width="150" height="32" rx="5" fill="white" stroke="#75869a"/><text x="485" y="568" font-family="Arial" font-size="13" text-anchor="middle">Storage HAL</text><rect x="20" y="663" width="760" height="114" rx="9" fill="#31536f" opacity=".14" stroke="#31536f"/><rect x="20" y="663" width="195" height="114" rx="9" fill="#31536f"/><text x="117" y="701" font-family="Arial" font-size="18" font-weight="bold" fill="white" text-anchor="middle">Linux Kernel</text><rect x="240" y="683" width="150" height="32" rx="5" fill="white" stroke="#75869a"/><text x="315" y="704" font-family="Arial" font-size="13" text-anchor="middle">Network Driver</text><rect x="410" y="683" width="150" height="32" rx="5" fill="white" stroke="#75869a"/><text x="485" y="704" font-family="Arial" font-size="13" text-anchor="middle">Storage Driver</text><rect x="580" y="683" width="150" height="32" rx="5" fill="white" stroke="#75869a"/><text x="655" y="704" font-family="Arial" font-size="13" text-anchor="middle">Power Management</text><rect x="20" y="799" width="760" height="158" rx="9" fill="#42515d" opacity=".14" stroke="#42515d"/><rect x="20" y="799" width="195" height="158" rx="9" fill="#42515d"/><text x="117" y="837" font-family="Arial" font-size="18" font-weight="bold" fill="white" text-anchor="middle">Hardware Platform</text><rect x="240" y="819" width="150" height="32" rx="5" fill="white" stroke="#75869a"/><text x="315" y="840" font-family="Arial" font-size="13" text-anchor="middle">SoC / CPU</text><rect x="410" y="819" width="150" height="32" rx="5" fill="white" stroke="#75869a"/><text x="485" y="840" font-family="Arial" font-size="13" text-anchor="middle">Storage eMMC / SSD</text><rect x="580" y="819" width="150" height="32" rx="5" fill="white" stroke="#75869a"/><text x="655" y="840" font-family="Arial" font-size="13" text-anchor="middle">Ethernet / Wi-Fi</text><rect x="240" y="863" width="150" height="32" rx="5" fill="white" stroke="#75869a"/><text x="315" y="884" font-family="Arial" font-size="13" text-anchor="middle">Security Chip / TPM</text><rect x="805" y="75" width="175" height="232" rx="9" fill="#eaf7ff" stroke="#2b91cf"/><text x="892" y="100" font-family="Arial" font-size="16" font-weight="bold" text-anchor="middle">Security</text><text x="892" y="130" font-family="Arial" font-size="13" text-anchor="middle">Device Identity</text><text x="892" y="168" font-family="Arial" font-size="13" text-anchor="middle">IAM / RBAC</text><text x="892" y="206" font-family="Arial" font-size="13" text-anchor="middle">Security Policy</text><text x="892" y="244" font-family="Arial" font-size="13" text-anchor="middle">Audit</text><rect x="995" y="75" width="165" height="194" rx="9" fill="#f3ecff" stroke="#7254b3"/><text x="1077" y="100" font-family="Arial" font-size="16" font-weight="bold" text-anchor="middle">Buses</text><text x="1077" y="130" font-family="Arial" font-size="12" text-anchor="middle">System Service Bus</text><text x="1077" y="168" font-family="Arial" font-size="12" text-anchor="middle">Data Bus</text><text x="1077" y="206" font-family="Arial" font-size="12" text-anchor="middle">Middleware Bus</text></svg>