<svg xmlns="http://www.w3.org/2000/svg" width="1200" height="1252" viewBox="0 0 1200 1252"><rect width="1200" height="100%" fill="white"/><text x="600" y="42" font-family="Arial" font-size="28" font-weight="bold" text-anchor="middle">Event Search - Component Relationship</text><rect x="25" y="85" width="770" height="133" rx="10" fill="#a1434d" opacity=".14" stroke="#a1434d" stroke-width="2"/><rect x="25" y="85" width="205" height="133" rx="10" fill="#a1434d"/><text x="127" y="127" font-family="Arial" font-size="20" font-weight="bold" fill="white" text-anchor="middle">Application Layer</text><rect x="260" y="107" width="150" height="36" rx="6" fill="white" stroke="#74869b"/><text x="335" y="130" font-family="Arial" font-size="14" fill="#172033" text-anchor="middle">Event Search</text><rect x="430" y="107" width="150" height="36" rx="6" fill="white" stroke="#74869b"/><text x="505" y="130" font-family="Arial" font-size="14" fill="#172033" text-anchor="middle">Playback</text><rect x="600" y="107" width="150" height="36" rx="6" fill="white" stroke="#74869b"/><text x="675" y="130" font-family="Arial" font-size="14" fill="#172033" text-anchor="middle">Mobile / Web UI</text><rect x="25" y="246" width="770" height="133" rx="10" fill="#8d6335" opacity=".14" stroke="#8d6335" stroke-width="2"/><rect x="25" y="246" width="205" height="133" rx="10" fill="#8d6335"/><text x="127" y="288" font-family="Arial" font-size="20" font-weight="bold" fill="white" text-anchor="middle">Application Framework</text><rect x="260" y="268" width="150" height="36" rx="6" fill="white" stroke="#74869b"/><text x="335" y="291" font-family="Arial" font-size="14" fill="#172033" text-anchor="middle">Content Providers</text><rect x="430" y="268" width="150" height="36" rx="6" fill="white" stroke="#74869b"/><text x="505" y="291" font-family="Arial" font-size="14" fill="#172033" text-anchor="middle">View System</text><rect x="25" y="407" width="770" height="133" rx="10" fill="#23723b" opacity=".14" stroke="#23723b" stroke-width="2"/><rect x="25" y="407" width="205" height="133" rx="10" fill="#23723b"/><text x="127" y="449" font-family="Arial" font-size="20" font-weight="bold" fill="white" text-anchor="middle">System Services</text><rect x="260" y="429" width="150" height="36" rx="6" fill="white" stroke="#74869b"/><text x="335" y="452" font-family="Arial" font-size="14" fill="#172033" text-anchor="middle">Storage Service</text><rect x="430" y="429" width="150" height="36" rx="6" fill="white" stroke="#74869b"/><text x="505" y="452" font-family="Arial" font-size="14" fill="#172033" text-anchor="middle">Media Service</text><rect x="600" y="429" width="150" height="36" rx="6" fill="white" stroke="#74869b"/><text x="675" y="452" font-family="Arial" font-size="14" fill="#172033" text-anchor="middle">Device Management</text><rect x="25" y="568" width="770" height="133" rx="10" fill="#20769b" opacity=".14" stroke="#20769b" stroke-width="2"/><rect x="25" y="568" width="205" height="133" rx="10" fill="#20769b"/><text x="127" y="610" font-family="Arial" font-size="20" font-weight="bold" fill="white" text-anchor="middle">Middleware</text><rect x="260" y="590" width="150" height="36" rx="6" fill="white" stroke="#74869b"/><text x="335" y="613" font-family="Arial" font-size="14" fill="#172033" text-anchor="middle">Database</text><rect x="430" y="590" width="150" height="36" rx="6" fill="white" stroke="#74869b"/><text x="505" y="613" font-family="Arial" font-size="14" fill="#172033" text-anchor="middle">Media Framework</text><rect x="25" y="729" width="770" height="133" rx="10" fill="#563891" opacity=".14" stroke="#563891" stroke-width="2"/><rect x="25" y="729" width="205" height="133" rx="10" fill="#563891"/><text x="127" y="771" font-family="Arial" font-size="20" font-weight="bold" fill="white" text-anchor="middle">HAL</text><rect x="260" y="751" width="150" height="36" rx="6" fill="white" stroke="#74869b"/><text x="335" y="774" font-family="Arial" font-size="14" fill="#172033" text-anchor="middle">Storage HAL</text><rect x="25" y="890" width="770" height="133" rx="10" fill="#31536f" opacity=".14" stroke="#31536f" stroke-width="2"/><rect x="25" y="890" width="205" height="133" rx="10" fill="#31536f"/><text x="127" y="932" font-family="Arial" font-size="20" font-weight="bold" fill="white" text-anchor="middle">Linux Kernel</text><rect x="260" y="912" width="150" height="36" rx="6" fill="white" stroke="#74869b"/><text x="335" y="935" font-family="Arial" font-size="14" fill="#172033" text-anchor="middle">Storage Driver</text><rect x="25" y="1051" width="770" height="133" rx="10" fill="#42515d" opacity=".14" stroke="#42515d" stroke-width="2"/><rect x="25" y="1051" width="205" height="133" rx="10" fill="#42515d"/><text x="127" y="1093" font-family="Arial" font-size="20" font-weight="bold" fill="white" text-anchor="middle">Hardware Platform</text><rect x="260" y="1073" width="150" height="36" rx="6" fill="white" stroke="#74869b"/><text x="335" y="1096" font-family="Arial" font-size="14" fill="#172033" text-anchor="middle">Storage eMMC / SSD</text><rect x="430" y="1073" width="150" height="36" rx="6" fill="white" stroke="#74869b"/><text x="505" y="1096" font-family="Arial" font-size="14" fill="#172033" text-anchor="middle">SoC / CPU</text><rect x="815" y="85" width="210" height="205" rx="10" fill="#eaf7ff" stroke="#2b91cf" stroke-width="2"/><text x="920" y="112" font-family="Arial" font-size="17" font-weight="bold" text-anchor="middle">Security Context</text><rect x="835" y="125" width="170" height="34" rx="6" fill="white" stroke="#2b91cf"/><text x="920" y="147" font-family="Arial" font-size="13" text-anchor="middle">IAM / RBAC</text><rect x="835" y="175" width="170" height="34" rx="6" fill="white" stroke="#2b91cf"/><text x="920" y="197" font-family="Arial" font-size="13" text-anchor="middle">Encryption Services</text><rect x="835" y="225" width="170" height="34" rx="6" fill="white" stroke="#2b91cf"/><text x="920" y="247" font-family="Arial" font-size="13" text-anchor="middle">Audit</text><rect x="1025" y="85" width="155" height="205" rx="10" fill="#f3ecff" stroke="#7254b3" stroke-width="2"/><text x="1102" y="112" font-family="Arial" font-size="17" font-weight="bold" text-anchor="middle">Buses</text><rect x="1030" y="125" width="145" height="34" rx="6" fill="white" stroke="#7254b3"/><text x="1102" y="147" font-family="Arial" font-size="12" text-anchor="middle">Application Bus</text><rect x="1030" y="175" width="145" height="34" rx="6" fill="white" stroke="#7254b3"/><text x="1102" y="197" font-family="Arial" font-size="12" text-anchor="middle">System Service Bus</text><rect x="1030" y="225" width="145" height="34" rx="6" fill="white" stroke="#7254b3"/><text x="1102" y="247" font-family="Arial" font-size="12" text-anchor="middle">Data Bus</text></svg>