<svg xmlns="http://www.w3.org/2000/svg" width="1200" height="760" viewBox="0 0 1200 760"><rect width="1200" height="760" fill="white"/><text x="600" y="45" font-family="Arial" font-size="28" font-weight="bold" text-anchor="middle">HAL Bus - Boundary Relationship</text><rect x="45" y="100" width="360" height="250" rx="12" fill="#e8e0f6" stroke="#563891" stroke-width="2"/><text x="225" y="135" font-family="Arial" font-size="22" font-weight="bold" text-anchor="middle">Hardware Abstraction Layer</text><rect x="75" y="160" width="140" height="38" rx="6" fill="white" stroke="#77889b"/><text x="145" y="184" font-family="Arial" font-size="13" text-anchor="middle">Camera HAL</text><rect x="230" y="160" width="140" height="38" rx="6" fill="white" stroke="#77889b"/><text x="300" y="184" font-family="Arial" font-size="13" text-anchor="middle">AI / NPU HAL</text><rect x="75" y="215" width="140" height="38" rx="6" fill="white" stroke="#77889b"/><text x="145" y="239" font-family="Arial" font-size="13" text-anchor="middle">Audio HAL</text><rect x="230" y="215" width="140" height="38" rx="6" fill="white" stroke="#77889b"/><text x="300" y="239" font-family="Arial" font-size="13" text-anchor="middle">Display HAL</text><rect x="75" y="270" width="140" height="38" rx="6" fill="white" stroke="#77889b"/><text x="145" y="294" font-family="Arial" font-size="13" text-anchor="middle">Storage HAL</text><rect x="230" y="270" width="140" height="38" rx="6" fill="white" stroke="#77889b"/><text x="300" y="294" font-family="Arial" font-size="13" text-anchor="middle">Network HAL</text><rect x="445" y="150" width="310" height="150" rx="16" fill="#f3ecff" stroke="#7254b3" stroke-width="3"/><text x="600" y="195" font-family="Arial" font-size="24" font-weight="bold" text-anchor="middle">HAL Bus</text><text x="600" y="230" font-family="Arial" font-size="17" text-anchor="middle">Standard Interfaces</text><text x="600" y="265" font-family="Arial" font-size="14" text-anchor="middle">ownership • validation • lifecycle • errors</text><line x1="405" y1="225" x2="445" y2="225" stroke="#53677d" stroke-width="3"/><line x1="755" y1="225" x2="795" y2="225" stroke="#53677d" stroke-width="3"/><rect x="795" y="100" width="360" height="250" rx="12" fill="#e7ebee" stroke="#42515d" stroke-width="2"/><text x="975" y="135" font-family="Arial" font-size="22" font-weight="bold" text-anchor="middle">Linux Kernel</text><rect x="825" y="160" width="140" height="38" rx="6" fill="white" stroke="#77889b"/><text x="895" y="184" font-family="Arial" font-size="13" text-anchor="middle">Camera Driver</text><rect x="980" y="160" width="140" height="38" rx="6" fill="white" stroke="#77889b"/><text x="1050" y="184" font-family="Arial" font-size="13" text-anchor="middle">NPU Driver</text><rect x="825" y="215" width="140" height="38" rx="6" fill="white" stroke="#77889b"/><text x="895" y="239" font-family="Arial" font-size="13" text-anchor="middle">Audio Driver</text><rect x="980" y="215" width="140" height="38" rx="6" fill="white" stroke="#77889b"/><text x="1050" y="239" font-family="Arial" font-size="13" text-anchor="middle">Display Driver</text><rect x="825" y="270" width="140" height="38" rx="6" fill="white" stroke="#77889b"/><text x="895" y="294" font-family="Arial" font-size="13" text-anchor="middle">Storage Driver</text><rect x="980" y="270" width="140" height="38" rx="6" fill="white" stroke="#77889b"/><text x="1050" y="294" font-family="Arial" font-size="13" text-anchor="middle">Network Driver</text><rect x="270" y="420" width="660" height="220" rx="12" fill="#eaf7ff" stroke="#2b91cf" stroke-width="2"/><text x="600" y="455" font-family="Arial" font-size="20" font-weight="bold" text-anchor="middle">Security controls on the boundary</text><rect x="330" y="485" width="240" height="38" rx="6" fill="white" stroke="#2b91cf"/><text x="450" y="509" font-family="Arial" font-size="14" text-anchor="middle">Secure HAL Interface</text><rect x="610" y="485" width="240" height="38" rx="6" fill="white" stroke="#2b91cf"/><text x="730" y="509" font-family="Arial" font-size="14" text-anchor="middle">Device Identity</text><rect x="330" y="543" width="240" height="38" rx="6" fill="white" stroke="#2b91cf"/><text x="450" y="567" font-family="Arial" font-size="14" text-anchor="middle">Secure Boot / Measured Boot</text><rect x="610" y="543" width="240" height="38" rx="6" fill="white" stroke="#2b91cf"/><text x="730" y="567" font-family="Arial" font-size="14" text-anchor="middle">Secrets / Key Management</text></svg>