<svg xmlns="http://www.w3.org/2000/svg" width="1400" height="820"><defs><style>text{font-family:Arial;fill:#172033}.h{font-size:22px;font-weight:bold}.t{font-size:14px}.p{fill:#fff4d8;stroke:#c38a17;stroke-width:2}.left{fill:#f9e5df;stroke:#ad5a41;stroke-width:2}.ct{fill:white;stroke:#718297;stroke-width:2}.right{fill:#eee9fb;stroke:#6a54a5;stroke-width:2}.a{stroke:#53677d;stroke-width:2.5;fill:none;marker-end:url(#a)}.o{stroke:#7d8791;stroke-width:2;stroke-dasharray:7 6;fill:none;marker-end:url(#o)}</style><marker id="a" markerWidth="10" markerHeight="10" refX="8" refY="3.5" orient="auto"><polygon points="0 0,8 3.5,0 7" fill="#53677d"/></marker><marker id="o" markerWidth="10" markerHeight="10" refX="8" refY="3.5" orient="auto"><polygon points="0 0,8 3.5,0 7" fill="#7d8791"/></marker></defs><rect width="1400" height="820" fill="white"/><text x="700" y="40" class="h" text-anchor="middle">Hardware Root of Trust — v2 contract relationship</text><rect x="500" y="70" width="400" height="80" rx="12" class="p"/><text x="700" y="105" class="h" text-anchor="middle">Product / Security Profile</text><rect x="80" y="245" width="320" height="170" rx="12" class="left"/><text x="240" y="280" class="h" text-anchor="middle">Product / Trust Owner</text><rect x="540" y="225" width="320" height="210" rx="12" class="ct"/><text x="700" y="265" class="h" text-anchor="middle">Portable Contract</text><text x="700" y="305" class="t" text-anchor="middle">RootOfTrustProvider contract covering boot anchors, protected key operations, optional measurements, optional attestation, provisioning, failure, replacement, and qualification evidence.</text><rect x="1000" y="245" width="320" height="170" rx="12" class="right"/><text x="1160" y="280" class="h" text-anchor="middle">Selected Provider / Transport</text><path d="M400 330 L540 330" class="a"/><path d="M860 330 L1000 330" class="a"/><path d="M700 150 L700 225" class="o"/><rect x="340" y="570" width="720" height="105" rx="12" class="ct"/><text x="700" y="608" class="h" text-anchor="middle">Provider replacement / lifecycle / compatibility qualification</text></svg>